<svg width="56" height="56" viewBox="0 0 56 56" fill="none" xmlns="http://www.w3.org/2000/svg">
<g filter="url(#filter0_d)">
<rect x="4" width="48" height="48" fill="white"/>
<path d="M16.5 18C16.5 16.6193 17.6193 15.5 19 15.5H23C24.3807 15.5 25.5 16.6193 25.5 18V24.5H16.5V18Z" stroke="#FF498B" stroke-width="3"/>
<path d="M29.5 18C29.5 16.6193 30.6193 15.5 32 15.5H36C37.3807 15.5 38.5 16.6193 38.5 18V24.5H29.5V18Z" stroke="#FF498B" stroke-width="3"/>
<path d="M11.5 11C11.5 6.30558 15.3056 2.5 20 2.5H35C39.6944 2.5 43.5 6.30558 43.5 11V24.5H11.5V11Z" stroke="#152C5B" stroke-width="3"/>
<mask id="path-5-inside-1" fill="white">
<path d="M4 27C4 24.7909 5.79086 23 8 23H48C50.2091 23 52 24.7909 52 27V37C52 38.1046 51.1046 39 50 39H6C4.89543 39 4 38.1046 4 37V27Z"/>
</mask>
<path d="M4 27C4 24.7909 5.79086 23 8 23H48C50.2091 23 52 24.7909 52 27V37C52 38.1046 51.1046 39 50 39H6C4.89543 39 4 38.1046 4 37V27Z" stroke="#152C5B" stroke-width="6" mask="url(#path-5-inside-1)"/>
<path d="M47 42L10 42" stroke="#152C5B" stroke-width="3" stroke-linecap="round"/>
<path d="M47 38V46" stroke="#152C5B" stroke-width="3" stroke-linecap="round"/>
<path d="M9 38V46" stroke="#152C5B" stroke-width="3" stroke-linecap="round"/>
</g>
<defs>
<filter id="filter0_d" x="0" y="0" width="56" height="56" filterUnits="userSpaceOnUse" color-interpolation-filters="sRGB">
<feFlood flood-opacity="0" result="BackgroundImageFix"/>
<feColorMatrix in="SourceAlpha" type="matrix" values="0 0 0 0 0 0 0 0 0 0 0 0 0 0 0 0 0 0 127 0"/>
<feOffset dy="4"/>
<feGaussianBlur stdDeviation="2"/>
<feColorMatrix type="matrix" values="0 0 0 0 0 0 0 0 0 0 0 0 0 0 0 0 0 0 0.25 0"/>
<feBlend mode="normal" in2="BackgroundImageFix" result="effect1_dropShadow"/>
<feBlend mode="normal" in="SourceGraphic" in2="effect1_dropShadow" result="shape"/>
</filter>
</defs>
</svg>
